<?xml version="1.0" encoding="UTF-8"?>
<svg id="Capa_1" data-name="Capa 1" xmlns="http://www.w3.org/2000/svg" xmlns:xlink="http://www.w3.org/1999/xlink" viewBox="0 0 1999.99 2000">
  <defs>
    <style>
      .cls-1 {
        fill: url(#Degradado_sin_nombre_6);
      }

      .cls-2 {
        fill: url(#Degradado_sin_nombre_9);
      }

      .cls-3 {
        fill: url(#Degradado_sin_nombre_35);
      }

      .cls-4 {
        fill: url(#Degradado_sin_nombre_7);
      }

      .cls-5 {
        fill: url(#Degradado_sin_nombre_10);
      }
    </style>
    <linearGradient id="Degradado_sin_nombre_7" data-name="Degradado sin nombre 7" x1="18.99" y1="904.39" x2="1976.99" y2="904.39" gradientUnits="userSpaceOnUse">
      <stop offset=".51" stop-color="#c89031"/>
      <stop offset=".7" stop-color="#dc9c34" stop-opacity=".78"/>
      <stop offset="1" stop-color="#fbb03b" stop-opacity=".45"/>
      <stop offset="1" stop-color="#fbb03b" stop-opacity=".44"/>
      <stop offset="1" stop-color="#fbb03b" stop-opacity=".41"/>
      <stop offset="1" stop-color="#fbb03b" stop-opacity=".36"/>
      <stop offset="1" stop-color="#fbb03b" stop-opacity=".29"/>
      <stop offset="1" stop-color="#fbb03b" stop-opacity=".19"/>
      <stop offset="1" stop-color="#fbb03b" stop-opacity=".08"/>
      <stop offset="1" stop-color="#fbb03b" stop-opacity="0"/>
    </linearGradient>
    <linearGradient id="Degradado_sin_nombre_6" data-name="Degradado sin nombre 6" x1="626.73" y1="1833.54" x2="1371.03" y2="1833.54" gradientUnits="userSpaceOnUse">
      <stop offset=".58" stop-color="#c89031"/>
      <stop offset=".74" stop-color="#dc9c34" stop-opacity=".78"/>
      <stop offset="1" stop-color="#fbb03b" stop-opacity=".45"/>
      <stop offset="1" stop-color="#fbb03b" stop-opacity=".43"/>
      <stop offset="1" stop-color="#fbb03b" stop-opacity=".2"/>
      <stop offset="1" stop-color="#fbb03b" stop-opacity=".05"/>
      <stop offset="1" stop-color="#fbb03b" stop-opacity="0"/>
    </linearGradient>
    <linearGradient id="Degradado_sin_nombre_35" data-name="Degradado sin nombre 35" x1="646.38" y1="970.72" x2="1345.26" y2="970.72" gradientUnits="userSpaceOnUse">
      <stop offset="0" stop-color="#fbb03b"/>
      <stop offset="0" stop-color="#fbb03b" stop-opacity=".66"/>
      <stop offset="0" stop-color="#fbb03b" stop-opacity=".45"/>
      <stop offset=".03" stop-color="#fbb03b" stop-opacity=".43"/>
      <stop offset=".49" stop-color="#fbb03b" stop-opacity=".2"/>
      <stop offset=".82" stop-color="#fbb03b" stop-opacity=".05"/>
      <stop offset="1" stop-color="#fbb03b" stop-opacity="0"/>
    </linearGradient>
    <linearGradient id="Degradado_sin_nombre_9" data-name="Degradado sin nombre 9" x1="646.38" y1="970.75" x2="750.69" y2="970.75" gradientUnits="userSpaceOnUse">
      <stop offset=".49" stop-color="#c89031"/>
      <stop offset=".52" stop-color="#cb9231" stop-opacity=".93"/>
      <stop offset=".85" stop-color="#eda738" stop-opacity=".27"/>
      <stop offset=".99" stop-color="#fbb03b" stop-opacity="0"/>
      <stop offset="1" stop-color="#fbb03b" stop-opacity=".45"/>
    </linearGradient>
    <linearGradient id="Degradado_sin_nombre_10" data-name="Degradado sin nombre 10" x1="1241.01" y1="970.69" x2="1345.26" y2="970.69" gradientUnits="userSpaceOnUse">
      <stop offset=".52" stop-color="#c89031"/>
      <stop offset=".71" stop-color="#dc9c34" stop-opacity=".78"/>
      <stop offset="1" stop-color="#fbb03b" stop-opacity=".45"/>
      <stop offset="1" stop-color="#fbb03b" stop-opacity=".44"/>
      <stop offset="1" stop-color="#fbb03b" stop-opacity=".4"/>
      <stop offset="1" stop-color="#fbb03b" stop-opacity=".34"/>
      <stop offset="1" stop-color="#fbb03b" stop-opacity=".26"/>
      <stop offset="1" stop-color="#fbb03b" stop-opacity=".15"/>
      <stop offset="1" stop-color="#fbb03b" stop-opacity=".01"/>
      <stop offset="1" stop-color="#fbb03b" stop-opacity="0"/>
    </linearGradient>
  </defs>
  <path class="cls-4" d="M1011.87,1656.21c35.29-54.02,69.78-106.82,106.45-162.96-31.75,14.49-61.17,25.83-88.44,41.02-22.51,12.54-41.53,12.26-63.88.01-27.21-14.9-56.26-26.43-88.59-41.28,11.75,18.08,21.34,32.92,31.03,47.71,22.64,34.56,44.96,69.35,68.25,103.47,6.54,9.59,5.25,14.19-3.88,20.66-29.98,21.23-59.48,43.15-88.77,65.31-7.89,5.97-14.46,6.64-23.71,2.79-66.37-27.68-133.07-54.56-199.45-82.23-8.56-3.57-14.61-3.27-22.27,2.04-62.49,43.26-125.42,85.9-187.81,129.31-8.69,6.04-13.64,6.63-21.83-.96-117.5-108.92-235.41-217.39-352.9-326.32-5.02-4.65-9.18-12.4-9.94-19.14-10.45-92.73-20.23-185.54-30.18-278.34-5.65-52.73-11.54-105.44-16.71-158.21-.76-7.72.27-16.43,3.19-23.57,43.76-107.17,87.82-214.21,132.47-321.01,2.65-6.35,10.02-12.79,16.62-15.09,38.49-13.44,77.55-25.27,116.05-38.68,6.72-2.34,13.73-8.53,17.14-14.81,11.9-21.95,21.35-45.25,33.58-66.99,8.35-14.85,7.88-27.59,1.31-42.91-25.7-59.99-50.48-120.39-74.97-180.89-3.27-8.09-4.86-17.82-4-26.47,5.2-52.25,11.6-104.37,16.92-156.61,1.05-10.27,4.68-16.38,13.92-21.41,38.97-21.21,77.64-42.99,116.06-65.2,8.84-5.11,13.88-4.48,20.05,3.81,13.1,17.58,27.49,34.18,40.8,51.61,5.7,7.46,11.57,11.04,20.74,6.81,14.35-6.61,27.16-2.26,40.63,4.28,33.03,16.04,66.49,31.22,100.16,45.89,5.7,2.48,13.52,1.91,19.9.55,7.87-1.68,15.69-4.86,22.77-8.76,42.96-23.69,89.95-23.28,136.9-23.83,88.77-1.05,177.54-3.41,266.3-3.24,61.23.12,122.61,1.57,183.58,6.55,24.01,1.96,47.87,13.46,70.37,23.75,18.44,8.44,33.59,8.26,51.5-1.22,27.91-14.78,57.39-26.58,85.84-40.38,12.94-6.28,25.49-10.18,39.26-3.72,9.7,4.55,15.66.84,21.7-7.29,13.08-17.59,27.5-34.19,40.78-51.64,5.75-7.56,10.62-8.5,19.06-3.65,39.81,22.88,80.15,44.81,119.87,67.84,4.75,2.76,9.14,9.84,9.8,15.38,6.62,55.69,12.58,111.46,18.24,167.25.58,5.72-1.11,12.15-3.34,17.59-26.47,64.65-53.45,129.09-79.59,193.87-2.47,6.11-2.35,15.13.32,21.12,12.03,27,25,53.63,38.67,79.84,2.87,5.5,9.51,10.56,15.52,12.64,39.02,13.49,78.49,25.69,117.43,39.38,6.59,2.32,13.93,8.73,16.57,15.07,44.8,107.28,88.99,214.81,132.93,322.44,2.55,6.25,3.14,13.96,2.44,20.76-8.54,83.18-17.47,166.33-26.33,249.47-6.54,61.34-12.83,122.71-20.07,183.96-.98,8.25-4.9,18.06-10.81,23.55-117.34,109.08-235.23,217.56-352.76,326.43-7.58,7.02-12.67,6.51-20.77.9-62.09-42.96-124.68-85.19-186.68-128.29-9.14-6.35-16.13-7.07-26.29-2.82-65.85,27.58-131.95,54.55-198.12,81.32-5.04,2.04-13.14,3.52-16.78.95-35.32-24.95-69.99-50.82-106.22-77.45ZM1540.69,881.08c-3.72-7.47-6.45-12.78-9.03-18.15-47.49-98.83-94.82-197.74-142.68-296.39-3.8-7.84-9.95-15.78-17.09-20.56-55.57-37.14-111.47-73.8-167.79-109.78-7.97-5.09-18.77-8.07-28.28-8.11-118.97-.54-237.94-.58-356.9.02-9.96.05-21.19,3.68-29.63,9.07-55.46,35.42-110.46,71.59-165.22,108.08-6.79,4.52-13.07,11.58-16.63,18.9-39.68,81.64-78.73,163.59-118.06,245.41-11.19,23.28-22.71,46.39-35.11,71.68-17.33-13.53-33.02-25.78-50.18-39.18-18.34,53.09-35.82,103.6-53.13,154.17-.94,2.74-.66,6.05-.37,9.03,7.84,80.69,17.83,161.24,22.74,242.1,2.31,37.92,28.12,55.83,49.25,81.73,20.06-31.94,38.64-61.52,57.36-91.32-10.55-9.41-19.66-18.4-29.68-26.22-9.52-7.43-13.61-16.37-14.92-28.38-6.69-61.35-14.28-122.59-21.28-183.91-.55-4.84-.12-10.39,1.74-14.81,11.08-26.33,22.46-52.54,34.43-78.47,1.73-3.75,7.09-8.15,10.9-8.27,54.31-1.78,108.64-2.88,164.71-4.19,0,25.67.5,51.1-.23,76.5-.31,10.75,2.61,17.89,11.62,24.39,21.1,15.22,41.8,31.09,61.68,47.85,10.74,9.05,19.59,20.37,29.06,30.88,5.65,6.26,5.26,11.73-1.12,18.29-31.68,32.53-62.96,65.45-94.1,98.49-5.62,5.96-10.28,6.58-17.1,2.04-11.46-7.62-22.83-15.98-35.4-21.21-31.02-12.9-47.83-33.97-45.71-68.62.4-6.47-1.64-13.11-2.76-19.64-5.23-30.5-6.15-23.01,21.61-34.36,12.57-5.14,18.27-1.19,20.06,10.97,4.44,30.14,29.01,42.07,51.58,58.45,6.21-10.33,11.8-19.65,17.47-29.09-19.08-20.3-37.78-39.16-55.13-59.2-5.92-6.84-9.94-16.23-12.21-25.12-3.6-14.06-5.01-28.68-7.42-43.52-24.68,0-47.62-.12-70.55.13-3.28.04-8.07.84-9.57,3.05-7.87,11.57-17.73,21.95-15.63,38.36,4.27,33.38,9.05,66.89,9.92,100.44.92,35.65,12.28,64,42.65,83.71,1.27.82,2.34,1.98,3.39,3.09,12.38,13.11,15.28,33.04,6.78,48.62-28.58,52.39-57.1,104.81-86.07,156.99-4.78,8.61-11.7,16.04-18.11,24.66-4.39-3.71-7.22-5.78-9.69-8.24-28.91-28.83-58.09-57.41-86.34-86.87-5.42-5.65-9.37-14.63-10.18-22.47-10.22-98.92-19.84-197.9-29.23-296.9-.69-7.29.3-15.33,2.76-22.22,18-50.43,36.5-100.68,54.99-150.93,9.43-25.64,19.18-51.16,29.2-77.87,16.24,6.72,30.67,12.69,46.15,19.1,11.03-20.73,21.67-40.72,32.93-61.88-38.79-15.3-76-29.98-113.53-44.79-2.17,4.14-3.49,6.28-4.46,8.56-42.56,100.48-85.15,200.96-127.48,301.54-2.07,4.91-3.11,10.93-2.5,16.19,12.67,108.87,25.83,217.69,38.38,326.57,2.07,17.95,7.99,32.08,22.13,44.64,41.97,37.25,82.55,76.06,123.74,114.19,19.34,17.9,38.82,35.64,58.48,53.67,28.34-19.49,55.34-38.07,83.45-57.4-15.18-11.48-27.91-21.73-41.29-31.02-9.21-6.39-9.29-11.76-3.21-21.13,35.29-54.34,69.67-109.27,104.72-163.76,6.01-9.34,12.49-19.06,20.86-26.08,38.32-32.13,77.41-63.34,116.19-94.92,22.82-18.59,45.57-37.25,68.12-55.69-25.18-53.93-49.87-106.01-73.69-158.49-5.04-11.1-12.11-17.59-23.12-22.3-53.45-22.87-106.81-45.98-155.37-78.63-8.45-5.68-11.76-9.8-6.47-20.61,29.35-60.02,57.44-120.65,86.68-180.73,3.98-8.18,10.74-16.26,18.29-21.25,48.49-32.1,97.44-63.52,146.6-94.59,6-3.79,14.13-5.92,21.29-5.95,118.45-.37,236.9-.45,355.35.08,9,.04,19.11,3.33,26.78,8.16,48.38,30.41,96.4,61.42,144.04,92.97,7.17,4.75,13.5,12.53,17.28,20.33,28.71,59.2,56.23,118.97,85.25,178.01,6.33,12.88,3.33,17.95-7.7,25.17-48.96,32.03-102.44,54.79-155.4,78.8-7.46,3.38-15,10.6-18.56,17.95-23.78,49.1-46.21,98.85-69.77,148.06-4.52,9.43-4.31,14.78,4.33,21.71,47.37,37.99,94.48,76.33,141.09,115.23,17.47,14.58,36.15,28.99,49.41,47.05,23.79,32.42,43.89,67.55,65.54,101.54,16.9,26.54,33.82,53.07,51.22,80.38-17.73,13.5-34.13,25.98-52.37,39.87,29.44,20.01,56.59,38.46,83.65,56.85,4.95-4.24,8.53-7.1,11.88-10.2,59.13-54.81,118.49-109.37,177.02-164.82,6.96-6.6,12.19-17.66,13.41-27.26,12.85-101.2,24.95-202.5,36.63-303.84,1.88-16.34,5.65-34.99.05-49.24-29.88-75.91-62.43-150.76-94.12-225.96-11.64-27.62-23.43-55.18-35.67-84-38.38,15.13-75.58,29.8-114.06,44.97,11.35,21.62,21.87,41.67,32.67,62.23,16.04-6.9,30.36-13.05,45.82-19.7,2.54,6.4,4.49,11,6.21,15.68,25.06,67.93,50.62,135.69,74.69,203.97,4.68,13.29,5.36,28.68,4.78,42.97-1.03,25.44-4.36,50.8-6.86,76.18-6.99,71.05-13.85,142.11-21.38,213.1-.68,6.38-4.53,13.5-9.06,18.21-25.11,26.11-50.87,51.59-76.45,77.25-21.27,21.34-23.22,21.24-38.08-5.66-29.85-54.01-59.56-108.11-88.68-162.52-2.9-5.43-2.57-13.44-1.6-19.93,3.82-25.36,27.18-35.59,41.71-52.74,4.9-5.78,9.53-13.45,10.39-20.71,5.24-44.58,9.23-89.3,13.88-133.94,3.09-29.62-10.68-45.12-40.37-45.01-14.3.05-28.62.48-42.88-.27-9.78-.51-14.31,2.89-14.16,12.72.52,34.01-14.56,60.28-40.26,81.43-4.69,3.86-8.39,8.9-12.59,13.36q-20.73,22.01-3.23,47.26c.48.69,1.71.85,1.68.84,30.38-15.2,51.3-37.79,56.01-72.52,11.34,3.79,18.93,6.94,26.82,8.8,10.17,2.39,14.25,6.9,12.17,18.18-4.15,22.54-6.42,45.43-10.41,68-.84,4.76-4.78,10.31-8.91,12.94-21.95,13.95-44.52,26.92-66.65,40.6-6.71,4.15-11.43,4.15-17.2-1.98-31.46-33.46-63.48-66.4-94.7-100.08-2.8-3.02-3.63-11.92-1.3-14.92,9.29-11.93,19.29-23.65,30.71-33.49,17.76-15.3,36.33-29.82,55.64-43.1,12.75-8.77,17.57-18.7,16.64-34.18-1.41-23.69-.37-47.53-.37-71.93,10.04.96,17.53,2.14,25.04,2.32,44.91,1.04,89.83,2.2,134.75,2.47,9.82.06,14.58,3.41,18.13,12.14,9.04,22.2,19.76,43.74,28.03,66.2,3.86,10.48,5.9,22.69,4.81,33.73-4.97,50.23-11.6,100.29-17.12,150.47-2.58,23.41-4.52,45.39-27.21,61.18-21.18,14.74-19.96,16.97-6.48,38.87,14.04,22.82,28.61,45.31,43.92,69.5,12.5-14.14,24.15-25.66,33.69-38.73,5.96-8.16,11.4-18.37,12.47-28.16,7.93-73,14.71-146.13,21.86-219.22,2.43-24.78,5.04-48.83-5.1-73.57-14.67-35.8-25.62-73.11-38.3-109.73-1.9-5.47-4.58-10.67-7.37-17.08-16.97,13.19-32.45,25.22-49.36,38.36ZM1707.09,672.52c1.05,2.76,2,5.64,3.22,8.39,44.03,99.27,88.17,198.5,131.94,297.88,2.93,6.66,5.1,14.74,4.33,21.79-13.69,125.67-27.79,251.3-42.31,376.88-.73,6.28-4.82,13.49-9.58,17.8-76.81,69.46-154.01,138.47-230.99,207.74-5.9,5.31-10.24,6.12-17.11,1-22.5-16.75-45.56-32.75-68.47-48.93-16.47-11.63-33.05-23.08-50.43-35.2-14.96,26.32-28.95,50.95-43.39,76.36,58.42,38.3,115.85,75.94,173.74,113.9,5.99-5.55,11.25-10.31,16.38-15.2,42.84-40.83,85.62-81.72,128.49-122.53,57.27-54.51,114.69-108.87,171.75-163.6,5.2-4.99,11.05-11.88,11.84-18.45,4.76-39.46,8.19-79.09,11.95-118.67,7.86-82.73,16.03-165.44,23.18-248.24,1.81-20.98,6.11-44.35-.67-63.02-30.12-82.86-64.08-164.32-96.03-246.52-5.51-14.17-12.52-24.22-27.97-28.9-17.02-5.16-33.86-11.72-49.65-19.86-15.4-7.94-27.79-7.03-40.21,7.39ZM567.14,1519.63c-40.34,28.64-78.7,55.64-116.74,83.09-7.35,5.3-12.33,6.15-19.72-.51-76.13-68.67-152.74-136.81-228.68-205.69-6.06-5.49-10.74-15.06-11.7-23.24-13.98-119.5-27.45-239.06-40.27-358.69-1.34-12.54-.87-26.95,4.02-38.21,42.16-97.28,85.61-194.01,128.31-291.06,2.25-5.12,3.88-14.7,1.27-16.96-6.62-5.72-13.59-13.21-25.42-7.8-22.7,10.39-46.36,18.65-69.13,28.89-5.7,2.56-11.58,8.48-13.9,14.26-34.58,86.08-68.64,172.38-102.6,258.71-2.18,5.54-4.14,11.91-3.63,17.66,3.8,42.64,8.4,85.2,12.46,127.82,8.84,92.88,17.37,185.78,26.53,278.63.62,6.31,4.1,13.69,8.66,18.07,94.25,90.36,188.84,180.36,283.37,270.43,12.4,11.81,24.81,23.62,37.01,35.24,58.97-38.68,116.01-76.11,173.96-114.12-14.85-25.95-28.92-50.54-43.8-76.53ZM1537.36,638.64c0-1.65.37-3.26-.05-4.62-20.72-66.17-41.38-132.36-62.59-198.37-1.49-4.64-6.41-9.16-10.88-11.7-65.66-37.26-131.79-73.71-197.18-111.44-20.79-12-42.82-7.24-64.18-8.52-67.73-4.06-135.58-8.79-203.36-8.42-78.01.42-155.98,6.34-234,9.02-15.79.54-29.57,3.85-43.34,11.74-63.29,36.25-127.12,71.56-190.42,107.79-5.45,3.12-10.25,9.92-12.31,16.03-11.53,34.31-22.14,68.93-33.03,103.46-9.94,31.51-19.85,63.02-30.25,96.05,8.4,1.67,15.49,2.31,22.05,4.53,12.98,4.4,19.63.29,25.49-12.34,19.11-41.17,39.32-81.85,60.01-122.25,4.14-8.08,11.04-16.12,18.74-20.79,62.82-38.08,126.03-75.51,189.41-112.65,6.23-3.65,14.28-5.49,21.59-5.82,135.21-6.15,270.45-6.33,405.67-.05,9.69.45,20.22,3.49,28.59,8.36,61.76,35.87,123.24,72.24,184.34,109.23,8.16,4.94,15.72,13.13,20.11,21.6,18.55,35.75,35.78,72.19,53.53,108.35q15.6,31.78,49.59,22.7c.45-.12.81-.6,2.46-1.88ZM472.1,386.09c59.99-32.94,117.44-62.85,173.2-95.63,41.54-24.41,82.95-45.72,133.11-39.78,2.47.29,5.06-.59,7.6-.72,73.38-3.6,146.78-10.54,220.12-9.88,88.19.79,176.33,7.93,264.46,12.75,7.34.4,15.14,2.96,21.65,6.49,45.28,24.55,90.25,49.66,135.36,74.5,30.62,16.86,61.32,33.57,95.21,52.11-17.7-42.48-33.68-81.45-50.38-120.12-1.95-4.51-7.3-8.37-11.99-10.73-30.05-15.16-60.09-30.4-90.64-44.49-40.23-18.56-77.41-42.77-125.38-43.1-81.06-.55-162.09-9.41-243.13-9.42-83.08,0-166.18,6.24-249.24,10.2-17.16.82-36.06-.47-51.02,6.23-56.27,25.21-111.29,53.22-166.61,80.51-4.69,2.31-10.03,6.24-11.97,10.75-16.71,38.78-32.71,77.86-50.37,120.32ZM1381.17,783.09c-24.98-43.63-49.17-86.07-73.68-128.34-2.19-3.77-5.99-6.98-9.7-9.45-43.32-28.81-86.63-57.64-130.33-85.86-5.97-3.86-14.05-6.09-21.21-6.21-35.72-.61-71.45-.27-107.17-.26-5.85,0-11.7,0-16.85,0-.92,3.6-1.38,4.58-1.39,5.56-.14,81.64-.44,163.27.06,244.9.04,6.04,4.7,13.21,9.24,17.87,44.87,46.03,90.15,91.65,135.39,137.32,3,3.03,6.53,5.53,10.73,9.04,10.32-21.61,19.92-41.71,29.96-62.71-39.05-26.52-77.14-52.91-115.86-78.34-10.54-6.92-15.09-14.43-14.87-27.21,1.08-63.76,1.32-127.53,1.84-191.3.05-5.48,0-10.96,0-18.43,5.82,2.17,9.59,3.27,13.09,4.94,54.34,25.83,108.68,51.65,162.88,77.75,4.37,2.1,8.94,5.48,11.42,9.5,12.84,20.83,25.2,41.98,37.26,63.27,1.61,2.84,2.24,8.82.52,10.54-18.27,18.24-37.12,35.92-57.59,55.46-5.42-14-9.58-25.36-14.2-36.53-5.32-12.86-12.44-25.67,3.21-34.38-18.52-45.33-61.73-45.16-98.21-60.94,0,34.89-.28,66.94.35,98.97.08,4.12,4.13,9.14,7.73,12.03,15.5,12.45,31.45,24.35,47.37,36.27,15.1,11.3,29.83,30.29,45.7,31.35,16.52,1.11,34.39-14.86,51.34-23.96,30.87-16.58,61.5-33.61,92.97-50.85ZM974.44,552.94c-34.92,0-67.55,1.37-100-.43-26.3-1.46-48.25,4.76-69.09,21.16-19.97,15.72-41.47,29.97-63.78,42.13-36.6,19.93-63.45,47.45-81.32,85.39-13.16,27.93-30.19,54.03-46.17,82.14,46.6,25.36,91.68,50.14,137.16,74.15,3.43,1.81,10.74-.43,14.54-3.16,25.27-18.14,49.49-37.78,75.24-55.19,14.77-9.99,20.32-21.3,19.19-39.1-1.66-26.13-.43-52.45-.43-80.96-38.19,15.91-81.73,16.89-98.38,59.52,3.64,6.34,10.46,12.84,9.25,17.03-5.27,18.26-12.88,35.84-20.41,55.72-19.14-18.21-35.73-34.72-53.2-50.26-7.44-6.62-7.06-11.89-2.34-19.58,10.67-17.37,19.92-35.66,31.21-52.59,5.07-7.6,12.7-14.75,20.81-18.84,36.42-18.36,73.4-35.61,110.24-53.14,19.18-9.12,38.49-17.98,59.07-27.58.87,5.73,1.96,9.62,1.98,13.51.46,67.86,1.04,135.72.71,203.57-.03,5.68-5.14,13.12-10.09,16.69-23.14,16.71-47.09,32.31-70.68,48.41-16.29,11.11-32.46,22.39-48.99,33.8,10.32,21.63,19.86,41.62,29.6,62.02,2.92-1.83,4.39-2.41,5.41-3.44,48.17-48.5,96.44-96.91,144.17-145.84,3.99-4.09,6.03-11.75,6.06-17.77.39-72.45.23-144.9.21-217.36,0-9.13,0-18.26,0-29.99ZM388.72,98.96c-11.3,7.83-19.88,15.56-29.85,20.36-32.3,15.55-42.72,39.34-40.38,75.58,3.33,51.62-2.37,103.48,21.57,152.66,14.51,29.82,23.65,62.26,36.08,95.91,3.01-5.2,4.73-7.63,5.91-10.29,27.7-62.46,55-125.09,83.35-187.25,4.35-9.53,12.31-18.4,20.69-24.88,16.3-12.62,34.07-23.33,53.04-36.04-15.51-7.71-28.31-15.09-41.94-20.31-5.25-2.01-13.94-1.21-18.39,2.01-15.25,11.05-29.15,23.95-43.9,35.72-12.11,9.67-31.55,6.74-40.57-5.57-9.82-13.41-8.01-30.69,4.21-40.14,6.81-5.27,13.63-10.52,21.73-16.77-10.61-13.78-20.72-26.91-31.56-40.99ZM1456.06,185c20.98,14.13,39.69,26.3,57.86,39.22,5.11,3.64,10.16,8.79,12.69,14.4,22.47,49.68,44.34,99.62,66.44,149.47,8.02,18.09,16.19,36.12,25.59,57.07,12.71-34.76,24.21-65.78,35.38-96.92,7.22-20.12,18.53-40.1,19.96-60.69,3.07-44.16,1.03-88.68.73-133.05-.02-3.57-1.7-8.53-4.34-10.45-20.88-15.17-42.19-29.75-63.98-44.95-11.1,14.34-21.21,27.38-31.71,40.94,7.91,6,14.38,10.93,20.86,15.83,12.92,9.77,15.04,27.95,4.8,41.27-9.47,12.32-28.5,14.85-40.51,5.05-14.62-11.92-28.74-24.48-43.67-35.98-3.74-2.88-10.79-5.2-14.59-3.63-14.5,6.02-28.3,13.75-45.51,22.42ZM1247.71,1302.64c-1.01.34-2.02.69-3.04,1.03,0,39.04.44,78.09-.34,117.11-.17,8.53-2.85,18.19-7.52,25.25-26.33,39.82-53.61,79.01-80.57,118.41.43.52.86,1.03,1.3,1.55,61.27-39.47,122.55-78.95,184.03-118.56-32.11-49.53-62.99-97.16-93.87-144.79ZM832.95,1563.07c.85-.68,1.69-1.35,2.54-2.03-1.33-2.52-2.42-5.2-4.02-7.53-24.43-35.77-49.27-71.26-73.12-107.41-4.71-7.13-7.81-16.66-8.02-25.18-.87-35.67-.33-71.38-.41-107.08,0-3.5-.66-6.99-1.3-13.25-32.73,50.44-63.7,98.18-95.27,146.83,60.7,39.08,120.15,77.36,179.61,115.63ZM611.02,1424.68c41.26-72.63,81.82-144.02,122.37-215.4-16.56,11-31.41,23.22-46.14,35.59-16,13.44-35.23,24.59-47.13,41.02-27.39,37.83-51.19,78.27-77.41,119.15,16.85,6.85,32.14,13.06,48.31,19.63ZM1263.02,1211.52c40.13,70.64,80.64,141.93,121.24,213.39,16.7-7.08,31.46-13.32,46.28-19.6-42.28-77.78-89.66-148.85-167.52-193.79ZM821.89,1349c0,18.57-.81,33.81.45,48.87.43,5.11,5.01,12.13,9.56,14.25,27.22,12.69,54.97,24.23,82.56,36.11,22.27,9.59,44.58,19.1,68.87,29.51,0-10.74-.71-18.92.17-26.92,1.22-11.15-2.61-17.9-13.05-22.62-13.43-6.07-26.14-13.74-39.16-20.7-35.41-18.93-70.81-37.86-109.4-58.49ZM1172.08,1351.56c-2.56.52-4.17.48-5.41,1.14-48.95,26.08-97.94,52.1-146.66,78.6-3.73,2.03-7.57,7.25-7.99,11.33-1.11,10.85-.38,21.89-.38,35.31,39.76-17.19,77.07-33.1,114.17-49.47,15.64-6.9,37.31-11,44.5-23.26,7.75-13.23,1.77-34.5,1.79-53.66ZM652.79,1536.47c0,13.25.91,23.51-.23,33.54-1.46,12.91,4.02,18.56,15.79,22.89,55.93,20.59,111.4,42.41,167.33,62.98,10.76,3.96,22.86,4.29,34.34,6.3.33-1.34.67-2.68,1-4.02-71.87-40.08-143.74-80.15-218.24-121.69ZM1342.21,1536.41c-74.74,41.74-146.36,81.74-217.98,121.74.68,1.85,1.36,3.7,2.03,5.54,15.32-4.12,31.05-7.13,45.89-12.57,51.16-18.77,102.1-38.14,152.84-57.99,6.56-2.57,15.34-8.5,16.45-14.16,2.48-12.69.78-26.21.78-42.56ZM1597.5,623.97c17.11-6.55,31.65-12.11,46.89-17.95-11.61-30.39-22.59-59.39-33.84-88.28-1.22-3.14-3.34-6.75-6.08-8.35-17.01-9.85-34.31-19.18-54.55-30.36,16.44,50.08,31.73,96.63,47.58,144.93ZM350.8,606.29c16.46,6.14,30.92,11.54,46.79,17.47,15.89-48.38,31.15-94.86,47.49-144.59-19.86,10.77-36.46,19.5-52.73,28.81-3.24,1.86-6.22,5.55-7.59,9.06-11.24,28.84-22.07,57.83-33.96,89.24Z"/>
  <path class="cls-1" d="M996.79,1973.9c-63.29,0-126.58-.19-189.87.19-10.23.06-17.01-2.73-22.73-11.6-50.62-78.39-101.72-156.47-152.29-234.89-3.29-5.1-6.59-16.03-4.51-17.74,9.09-7.5,13.99-22.15,32.42-14.9,68.77,27.08,138.37,52.09,207.44,78.42,10.45,3.98,18.44,4.14,28.28-2.21,30-19.35,60.97-37.19,91.11-56.34,8.01-5.1,13.79-5.66,21.99-.43,30.54,19.45,61.76,37.84,92.31,57.29,8.12,5.17,14.82,6.27,24.04,2.77,70.1-26.58,140.41-52.59,210.66-78.77,11.33-4.22,32.69,5.64,35.28,16.88.64,2.81-1.31,6.74-3.1,9.49-52.81,81.25-105.58,162.52-159.09,243.3-3.24,4.89-12.5,8.12-18.99,8.18-64.31.6-128.62.36-192.93.36Z"/>
  <path class="cls-3" d="M719.79,1022.45c18.86.74,30.63-9.9,30.9-27.94.53-35.69-39.55-75.88-75.29-75.49-18.43.2-29.74,11.9-28.98,29.99,1.41,33.66,39.84,72.13,73.38,73.45ZM1314.95,918.96c-33.56.1-73.56,40.2-73.94,74.14-.2,17.4,11,29,28.3,29.31,33.79.6,74.62-38.1,75.91-71.95.79-20.52-9.82-31.56-30.27-31.5Z"/>
  <path class="cls-2" d="M719.79,1022.45c-33.54-1.32-71.97-39.79-73.38-73.45-.76-18.08,10.56-29.79,28.98-29.99,35.74-.39,75.82,39.8,75.29,75.49-.27,18.04-12.04,28.68-30.9,27.94Z"/>
  <path class="cls-5" d="M1314.95,918.96c20.45-.06,31.06,10.98,30.27,31.5-1.3,33.85-42.13,72.55-75.91,71.95-17.3-.31-28.5-11.91-28.3-29.31.39-33.93,40.39-74.04,73.94-74.14Z"/>
</svg>